# xmcd
#
# Track frame offsets: 
#        182
#        16342
#        28845
#        42797
#        53960
#        65132
#        78202
#        93572
#        110122
#        127325
#        143442
#
# Disc length: 2445 seconds
#
# Revision: 5
# Processed by: cddbd v1.4PL0 Copyright (c) Steve Scherf et al.
# Submitted via: ExactAudioCopy v0.90b3
#
DISCID=9a098b0b
DTITLE=Junior Brown - Long Walk Back
DYEAR=1998
DGENRE=Country
TTITLE0=Long Walk Back To San Antone
TTITLE1=The Better Half
TTITLE2=Read 'Em And Weep
TTITLE3=Rock-A-Hula Baby
TTITLE4=Lookin' For Love
TTITLE5=Peelin' Taters
TTITLE6=Freedom Machine
TTITLE7=Just A Little Love
TTITLE8=Keepin' Up With You
TTITLE9=I'm All Fired Up
TTITLE10=Stupid Blues
EXTD=YEAR: 1998 ID3G:   2
EXTT0=
EXTT1=
EXTT2=
EXTT3=
EXTT4=
EXTT5=
EXTT6=
EXTT7=
EXTT8=
EXTT9=
EXTT10=
PLAYORDER=
